<svg width="47" height="37" viewBox="0 0 47 37" fill="none" xmlns="http://www.w3.org/2000/svg">
<path d="M22.8769 9.48168L7.83395 21.8713V35.2432C7.83395 35.5894 7.97149 35.9215 8.21631 36.1663C8.46113 36.4111 8.79318 36.5487 9.13941 36.5487L18.2825 36.525C18.6276 36.5233 18.958 36.385 19.2014 36.1403C19.4448 35.8957 19.5814 35.5646 19.5814 35.2195V27.4105C19.5814 27.0642 19.719 26.7322 19.9638 26.4874C20.2086 26.2426 20.5406 26.105 20.8869 26.105H26.1087C26.4549 26.105 26.787 26.2426 27.0318 26.4874C27.2766 26.7322 27.4141 27.0642 27.4141 27.4105V35.2138C27.4136 35.3856 27.447 35.5558 27.5123 35.7147C27.5777 35.8735 27.6738 36.0179 27.7951 36.1396C27.9163 36.2612 28.0604 36.3577 28.2191 36.4236C28.3777 36.4895 28.5478 36.5234 28.7196 36.5234L37.8594 36.5487C38.2056 36.5487 38.5377 36.4111 38.7825 36.1663C39.0273 35.9215 39.1649 35.5894 39.1649 35.2432V21.8623L24.1252 9.48168C23.9484 9.33916 23.7281 9.26145 23.501 9.26145C23.2739 9.26145 23.0537 9.33916 22.8769 9.48168ZM46.6386 17.9027L39.8176 12.2803V0.979091C39.8176 0.71942 39.7144 0.470385 39.5308 0.286769C39.3472 0.103154 39.0982 0 38.8385 0H34.2694C34.0097 0 33.7607 0.103154 33.5771 0.286769C33.3935 0.470385 33.2903 0.71942 33.2903 0.979091V6.90341L25.9855 0.893421C25.2845 0.316556 24.4048 0.00115316 23.497 0.00115316C22.5891 0.00115316 21.7095 0.316556 21.0084 0.893421L0.355327 17.9027C0.256184 17.9846 0.174159 18.0853 0.113938 18.199C0.0537177 18.3126 0.016482 18.437 0.00435871 18.5651C-0.00776456 18.6931 0.00546224 18.8223 0.0432834 18.9453C0.0811045 19.0682 0.142779 19.1825 0.224782 19.2816L2.30535 21.8109C2.38713 21.9103 2.48772 21.9927 2.60136 22.0532C2.715 22.1137 2.83946 22.1512 2.96762 22.1636C3.09577 22.1759 3.22511 22.1629 3.34821 22.1252C3.47132 22.0875 3.58579 22.0259 3.68505 21.9439L22.8769 6.13645C23.0537 5.99394 23.2739 5.91622 23.501 5.91622C23.7281 5.91622 23.9484 5.99394 24.1252 6.13645L43.3179 21.9439C43.4169 22.0259 43.5312 22.0876 43.6542 22.1254C43.7771 22.1632 43.9063 22.1764 44.0343 22.1643C44.1624 22.1522 44.2868 22.1149 44.4005 22.0547C44.5141 21.9945 44.6148 21.9125 44.6967 21.8133L46.7773 19.284C46.8592 19.1844 46.9206 19.0695 46.958 18.946C46.9954 18.8225 47.008 18.6929 46.9951 18.5645C46.9822 18.4362 46.9441 18.3116 46.8829 18.198C46.8217 18.0844 46.7387 17.9841 46.6386 17.9027Z" fill="#B40000"/>
</svg>
