<svg width="35" height="32" viewBox="0 0 35 32" fill="none" xmlns="http://www.w3.org/2000/svg">
<path d="M32.0833 0H2.91667C1.30642 0 0 1.30642 0 2.91667V22.3611C0 23.9714 1.30642 25.2778 2.91667 25.2778H14.5833L13.6111 28.1944H9.23611C8.42795 28.1944 7.77778 28.8446 7.77778 29.6528C7.77778 30.4609 8.42795 31.1111 9.23611 31.1111H25.7639C26.572 31.1111 27.2222 30.4609 27.2222 29.6528C27.2222 28.8446 26.572 28.1944 25.7639 28.1944H21.3889L20.4167 25.2778H32.0833C33.6936 25.2778 35 23.9714 35 22.3611V2.91667C35 1.30642 33.6936 0 32.0833 0ZM31.1111 21.3889H3.88889V3.88889H31.1111V21.3889Z" fill="url(#paint0_linear_15_98)"/>
<defs>
<linearGradient id="paint0_linear_15_98" x1="17.5" y1="0" x2="17.5" y2="31.1111" gradientUnits="userSpaceOnUse">
<stop stop-color="#009F36"/>
<stop offset="0.0001" stop-color="#4D8F63"/>
<stop offset="0.551041" stop-color="#2F4F3A"/>
<stop offset="1" stop-color="#213328"/>
</linearGradient>
</defs>
</svg>
