<svg width="35" height="27" viewBox="0 0 35 27" fill="none" xmlns="http://www.w3.org/2000/svg">
<path d="M31.7188 0H3.28125C1.46904 0 0 1.46904 0 3.28125V22.9688C0 24.781 1.46904 26.25 3.28125 26.25H31.7188C33.531 26.25 35 24.781 35 22.9688V3.28125C35 1.46904 33.531 0 31.7188 0ZM31.7188 3.28125V6.07065C30.186 7.31883 27.7424 9.25969 22.5185 13.3502C21.3672 14.2558 19.0868 16.4313 17.5 16.406C15.9135 16.4316 13.6323 14.2555 12.4815 13.3502C7.2584 9.2603 4.81421 7.31903 3.28125 6.07065V3.28125H31.7188ZM3.28125 22.9688V10.2811C4.84764 11.5287 7.06897 13.2795 10.4547 15.9307C11.9489 17.1069 14.5655 19.7032 17.5 19.6874C20.4201 19.7032 23.0035 17.1445 24.5446 15.9313C27.9303 13.2801 30.1523 11.5289 31.7188 10.2812V22.9688H3.28125Z" fill="#B40000"/>
</svg>
