<svg width="35" height="35" viewBox="0 0 35 35" fill="none" xmlns="http://www.w3.org/2000/svg">
<path d="M35 17.4669C35.0178 27.1088 27.1546 34.9931 17.5127 34.9999C13.3483 35.0029 9.52317 33.5512 6.51719 31.1251C5.73555 30.4943 5.67712 29.3228 6.38742 28.6125L7.18247 27.8175C7.78996 27.21 8.7598 27.1435 9.43285 27.6775C11.6475 29.4349 14.4503 30.4838 17.5 30.4838C24.6767 30.4838 30.4838 24.6756 30.4838 17.5C30.4838 10.3232 24.6756 4.51612 17.5 4.51612C14.0555 4.51612 10.927 5.85466 8.60407 8.03955L12.1855 11.621C12.8968 12.3323 12.393 13.5484 11.3872 13.5484H1.12903C0.505453 13.5484 0 13.0429 0 12.4193V2.16118C0 1.15535 1.21611 0.651592 1.9274 1.36281L5.41131 4.84672C8.55305 1.84427 12.8111 0 17.5 0C27.1539 0 34.9821 7.81713 35 17.4669ZM22.234 23.0262L22.9272 22.135C23.5014 21.3967 23.3684 20.3327 22.6301 19.7585L19.758 17.5246V10.1613C19.758 9.22595 18.9998 8.46773 18.0645 8.46773H16.9355C16.0001 8.46773 15.2419 9.22595 15.2419 10.1613V19.7334L19.8575 23.3233C20.5958 23.8975 21.6598 23.7646 22.234 23.0262Z" fill="#B40000"/>
</svg>
