<svg width="35" height="25" viewBox="0 0 35 25" fill="none" xmlns="http://www.w3.org/2000/svg">
<path d="M34.7216 6.72C25.0326 -2.24164 9.96348 -2.23836 0.278313 6.72C-0.085906 7.05688 -0.0930154 7.62727 0.259172 7.97672L2.13167 9.83446C2.46745 10.1681 3.00777 10.1752 3.35667 9.85524C11.3367 2.54461 23.6622 2.54297 31.6438 9.85524C31.9927 10.1752 32.533 10.1675 32.8688 9.83446L34.7413 7.97672C35.0929 7.62727 35.0858 7.05688 34.7216 6.72ZM17.5 17.5C15.5668 17.5 14 19.0668 14 21C14 22.9332 15.5668 24.5 17.5 24.5C19.4332 24.5 21 22.9332 21 21C21 19.0668 19.4332 17.5 17.5 17.5ZM28.5835 12.9287C22.2802 7.35438 12.7126 7.3604 6.41644 12.9287C6.0391 13.2623 6.02707 13.8414 6.38527 14.1947L8.26871 16.0535C8.59683 16.3773 9.12511 16.3992 9.47457 16.0973C14.0656 12.1286 20.9447 12.1374 25.5248 16.0973C25.8743 16.3992 26.4025 16.3778 26.7307 16.0535L28.6141 14.1947C28.9729 13.8414 28.9603 13.2617 28.5835 12.9287Z" fill="#DC3920"/>
</svg>
