<svg width="35" height="32" viewBox="0 0 35 32" fill="none" xmlns="http://www.w3.org/2000/svg">
<path d="M30.6686 19.4444H12.8559L13.2536 21.3889H29.5638C30.4996 21.3889 31.1932 22.2579 30.9858 23.1704L30.6506 24.6455C31.7863 25.1968 32.5695 26.3611 32.5695 27.7083C32.5695 29.6043 31.0188 31.1381 29.1166 31.1107C27.3044 31.0847 25.8141 29.6141 25.7652 27.8023C25.7384 26.8127 26.1349 25.9157 26.7862 25.2777H14.0472C14.6777 25.8954 15.0694 26.7559 15.0694 27.7083C15.0694 29.6414 13.4575 31.1981 11.5044 31.1073C9.77023 31.0268 8.35984 29.6256 8.26869 27.8919C8.19833 26.553 8.90282 25.3729 9.97318 24.7573L5.7047 3.88889H1.45833C0.652908 3.88889 0 3.23598 0 2.43056V1.45833C0 0.652908 0.652908 0 1.45833 0H7.6884C8.38117 0 8.97829 0.487387 9.11714 1.16606L9.6741 3.88889H33.5411C34.4769 3.88889 35.1705 4.75787 34.9631 5.67043L32.0906 18.3093C31.9398 18.9733 31.3495 19.4444 30.6686 19.4444ZM24.7917 10.2083H21.875V7.77778C21.875 7.24081 21.4398 6.80556 20.9028 6.80556H19.9306C19.3936 6.80556 18.9583 7.24081 18.9583 7.77778V10.2083H16.0417C15.5047 10.2083 15.0694 10.6436 15.0694 11.1806V12.1528C15.0694 12.6897 15.5047 13.125 16.0417 13.125H18.9583V15.5556C18.9583 16.0925 19.3936 16.5278 19.9306 16.5278H20.9028C21.4398 16.5278 21.875 16.0925 21.875 15.5556V13.125H24.7917C25.3286 13.125 25.7639 12.6897 25.7639 12.1528V11.1806C25.7639 10.6436 25.3286 10.2083 24.7917 10.2083Z" fill="#B40000"/>
</svg>
