<svg width="35" height="31" viewBox="0 0 35 31" fill="none" xmlns="http://www.w3.org/2000/svg">
<path d="M1.25 5.625H33.75C34.4404 5.625 35 5.06539 35 4.375V1.25C35 0.559609 34.4404 0 33.75 0H1.25C0.559609 0 0 0.559609 0 1.25V4.375C0 5.06539 0.559609 5.625 1.25 5.625ZM1.25 18.125H33.75C34.4404 18.125 35 17.5654 35 16.875V13.75C35 13.0596 34.4404 12.5 33.75 12.5H1.25C0.559609 12.5 0 13.0596 0 13.75V16.875C0 17.5654 0.559609 18.125 1.25 18.125ZM1.25 30.625H33.75C34.4404 30.625 35 30.0654 35 29.375V26.25C35 25.5596 34.4404 25 33.75 25H1.25C0.559609 25 0 25.5596 0 26.25V29.375C0 30.0654 0.559609 30.625 1.25 30.625Z" fill="url(#paint0_linear_15_104)"/>
<defs>
<linearGradient id="paint0_linear_15_104" x1="17.5" y1="0" x2="17.5" y2="30.625" gradientUnits="userSpaceOnUse">
<stop offset="0.0001"/>
<stop offset="1" stop-color="#8E8E8E"/>
</linearGradient>
</defs>
</svg>
