<svg width="35" height="35" viewBox="0 0 35 35" fill="none" xmlns="http://www.w3.org/2000/svg">
<path d="M17.5 0C7.8357 0 0 7.83852 0 17.5C0 27.1671 7.8357 35 17.5 35C27.1643 35 35 27.1671 35 17.5C35 7.83852 27.1643 0 17.5 0ZM17.5 31.6129C9.70036 31.6129 3.3871 25.3022 3.3871 17.5C3.3871 9.70297 9.70065 3.3871 17.5 3.3871C25.2967 3.3871 31.6129 9.70057 31.6129 17.5C31.6129 25.2995 25.3022 31.6129 17.5 31.6129ZM25.0676 13.6048C25.0676 18.3363 19.9573 18.4092 19.9573 20.1577V20.6048C19.9573 21.0725 19.5781 21.4516 19.1105 21.4516H15.8894C15.4218 21.4516 15.0427 21.0725 15.0427 20.6048V19.9938C15.0427 17.4715 16.955 16.4632 18.4001 15.653C19.6392 14.9583 20.3987 14.4858 20.3987 13.5657C20.3987 12.3488 18.8464 11.541 17.5914 11.541C15.9551 11.541 15.1997 12.3156 14.1378 13.6558C13.8515 14.0171 13.3291 14.0842 12.9618 13.8057L10.9984 12.3169C10.638 12.0437 10.5573 11.536 10.8118 11.1622C12.4791 8.71408 14.6026 7.33871 17.9089 7.33871C21.3715 7.33871 25.0676 10.0416 25.0676 13.6048ZM20.4637 25.4032C20.4637 27.0374 19.1342 28.3669 17.5 28.3669C15.8658 28.3669 14.5363 27.0374 14.5363 25.4032C14.5363 23.769 15.8658 22.4395 17.5 22.4395C19.1342 22.4395 20.4637 23.769 20.4637 25.4032Z" fill="#B40000"/>
</svg>
