<svg width="35" height="35" viewBox="0 0 35 35" fill="none" xmlns="http://www.w3.org/2000/svg">
<path d="M34.0019 24.7322L26.3455 21.4509C26.0184 21.3115 25.6549 21.2822 25.3097 21.3672C24.9645 21.4523 24.6562 21.6472 24.4314 21.9226L21.0407 26.0653C15.7193 23.5563 11.4369 19.2738 8.92789 13.9525L13.0705 10.5618C13.3465 10.3373 13.5418 10.0291 13.6269 9.68371C13.712 9.33834 13.6823 8.97464 13.5422 8.64767L10.2609 0.991292C10.1072 0.638831 9.83529 0.351058 9.4921 0.177595C9.14892 0.0041325 8.75597 -0.0441476 8.381 0.0410801L1.27151 1.68173C0.909995 1.76521 0.587453 1.96877 0.356524 2.25916C0.125596 2.54956 -8.32775e-05 2.90966 4.14006e-08 3.28069C4.14006e-08 20.8152 14.2122 35 31.7193 35C32.0904 35.0002 32.4507 34.8746 32.7412 34.6437C33.0318 34.4127 33.2354 34.0901 33.3189 33.7285L34.9596 26.619C35.0443 26.2422 34.995 25.8477 34.8202 25.5033C34.6454 25.1589 34.356 24.8863 34.0019 24.7322Z" fill="url(#paint0_linear_15_101)"/>
<defs>
<linearGradient id="paint0_linear_15_101" x1="17.5" y1="0" x2="17.5" y2="35" gradientUnits="userSpaceOnUse">
<stop stop-color="#DC3920"/>
<stop offset="0.494792" stop-color="#FFA57C"/>
<stop offset="1" stop-color="#B40000"/>
</linearGradient>
</defs>
</svg>
