<svg width="37" height="30" viewBox="0 0 37 30" fill="none" xmlns="http://www.w3.org/2000/svg">
<path d="M15.725 16.65H12.025C11.7797 16.65 11.5444 16.5525 11.3709 16.3791C11.1975 16.2056 11.1 15.9703 11.1 15.725V12.025C11.1 11.7797 11.1975 11.5444 11.3709 11.3709C11.5444 11.1975 11.7797 11.1 12.025 11.1H15.725C15.9703 11.1 16.2056 11.1975 16.3791 11.3709C16.5525 11.5444 16.65 11.7797 16.65 12.025V14.171C17.2923 13.4264 18.2109 12.95 19.24 12.95H27.1568L27.5413 12.5147C27.6665 12.3586 27.7396 12.167 27.75 11.9672C27.7369 11.7359 27.6392 11.5176 27.4754 11.3538L24.05 8.325V2.775C24.05 2.52967 23.9525 2.2944 23.7791 2.12093C23.6056 1.94745 23.3703 1.85 23.125 1.85H21.275C21.0297 1.85 20.7944 1.94745 20.6209 2.12093C20.4475 2.2944 20.35 2.52967 20.35 2.775V5.04703L15.2336 0.515687C14.9156 0.23125 14.3057 0 13.8779 0C13.4501 0 12.8413 0.23125 12.521 0.515687L0.276344 11.3555C0.111597 11.5181 0.0131137 11.7361 0 11.9672C0.00998633 12.1651 0.0817613 12.355 0.205234 12.51L1.29153 13.742C1.4555 13.9075 1.67519 14.006 1.90781 14.0184C2.10423 14.0085 2.29282 13.9383 2.44778 13.8172L3.7 12.7118V22.2C3.7 22.6906 3.89491 23.1612 4.24185 23.5081C4.58879 23.8551 5.05935 24.05 5.55 24.05H15.725V16.65ZM36.3831 25.9H34.225V16.65C34.225 15.6285 33.4798 14.8 32.56 14.8H19.24C18.3202 14.8 17.575 15.6285 17.575 16.65V25.9H15.4169C15.2533 25.9 15.0964 25.965 14.9807 26.0807C14.865 26.1964 14.8 26.3533 14.8 26.5169V27.1331C14.8023 27.786 15.0624 28.4115 15.5236 28.8735C15.9849 29.3355 16.61 29.5966 17.2628 29.6H34.5372C35.19 29.5966 35.8151 29.3355 36.2764 28.8735C36.7376 28.4115 36.9977 27.786 37 27.1331V26.5169C37 26.3533 36.935 26.1964 36.8193 26.0807C36.7036 25.965 36.5467 25.9 36.3831 25.9ZM31.45 25.9H20.35V17.575H31.45V25.9Z" fill="#B40000"/>
</svg>
